<svg viewBox="0 0 52 52" fill="none" xmlns="http://www.w3.org/2000/svg">
<path d="M26 47.6666C24.2272 47.6666 22.5338 46.9512 19.1467 45.5205C10.7156 41.959 6.5 40.1782 6.5 37.1828C6.5 36.3441 6.5 21.8064 6.5 15.1666M26 47.6666C27.7728 47.6666 29.4662 46.9512 32.8534 45.5205C41.2845 41.959 45.5 40.1782 45.5 37.1828V15.1666M26 47.6666V24.602" stroke="#444444" stroke-width="3" stroke-linecap="round" stroke-linejoin="round"/>
<path d="M18.0395 20.998L11.7102 17.9354C8.23673 16.2546 6.5 15.4142 6.5 14.0834C6.5 12.7525 8.23673 11.9122 11.7102 10.2314L18.0395 7.16872C21.9457 5.2785 23.899 4.33337 26 4.33337C28.101 4.33337 30.0543 5.27847 33.9606 7.16872L40.2898 10.2314C43.7632 11.9122 45.5 12.7525 45.5 14.0834C45.5 15.4142 43.7632 16.2546 40.2898 17.9354L33.9606 20.998C30.0543 22.8883 28.101 23.8334 26 23.8334C23.899 23.8334 21.9457 22.8883 18.0395 20.998Z" stroke="#444444" stroke-width="3" stroke-linecap="round" stroke-linejoin="round"/>
<path d="M13 26L17.3333 28.1667" stroke="#444444" stroke-width="3" stroke-linecap="round" stroke-linejoin="round"/>
<path d="M36.8333 8.66663L15.1667 19.5" stroke="#444444" stroke-width="3" stroke-linecap="round" stroke-linejoin="round"/>
</svg>
