<svg viewBox="0 0 18 18" fill="none" xmlns="http://www.w3.org/2000/svg">
<path d="M12.75 15C13.5784 15 14.25 14.3284 14.25 13.5C14.25 12.6716 13.5784 12 12.75 12C11.9216 12 11.25 12.6716 11.25 13.5C11.25 14.3284 11.9216 15 12.75 15Z" stroke="white"/>
<path d="M5.25 15C6.07843 15 6.75 14.3284 6.75 13.5C6.75 12.6716 6.07843 12 5.25 12C4.42157 12 3.75 12.6716 3.75 13.5C3.75 14.3284 4.42157 15 5.25 15Z" stroke="white"/>
<path d="M14.25 8.25H16.5V9.75C16.5 11.5178 16.5 12.4016 15.9508 12.9508C15.5857 13.3159 15.0725 13.4384 14.25 13.4793M3.75 13.4793C2.92746 13.4384 2.41432 13.3159 2.04917 12.9508C1.5 12.4016 1.5 11.5178 1.5 9.75V6.75C1.5 4.98224 1.5 4.09835 2.04917 3.54917C2.59835 3 3.48224 3 5.25 3H7.725C8.5626 3 8.9814 3 9.32033 3.11012C10.0053 3.33269 10.5423 3.86973 10.7649 4.55471C10.875 4.89364 10.875 5.31242 10.875 6.15C10.875 7.06559 10.875 7.5234 10.6243 7.833C10.5748 7.89405 10.5191 7.94985 10.458 7.99927C10.1484 8.25 9.6906 8.25 8.775 8.25H6M11.25 13.5H6.75" stroke="white" stroke-linecap="round" stroke-linejoin="round"/>
<path d="M10.875 4.5H12.2409C13.3324 4.5 13.8781 4.5 14.3223 4.76528C14.7664 5.03057 15.0252 5.51108 15.5427 6.47213L16.5 8.25" stroke="white" stroke-linecap="round" stroke-linejoin="round"/>
<path d="M7.5 9.75C7.5 9.75 6.99593 9.3327 6.55297 8.93707C6.23981 8.68522 6 8.46945 6 8.2536C6 8.06235 6.18712 7.8846 6.49185 7.60613C6.92391 7.2464 7.5 6.75 7.5 6.75" stroke="white" stroke-linecap="round" stroke-linejoin="round"/>
</svg>
