<svg viewBox="0 0 52 52" fill="none" xmlns="http://www.w3.org/2000/svg">
<path d="M10.8333 36.8334C9.47241 36.5411 8.40461 36.0724 7.50193 35.3206C7.06309 34.9551 6.66072 34.5467 6.30058 34.1014C4.33333 31.6687 4.33333 28.0543 4.33333 20.8253C4.33333 13.5964 4.33333 9.9819 6.30058 7.54912C6.66072 7.10376 7.06309 6.69539 7.50193 6.32989C9.89902 4.33337 13.4605 4.33337 20.5833 4.33337H31.4167C38.5396 4.33337 42.1009 4.33337 44.4981 6.32989C44.9369 6.69539 45.3392 7.10376 45.6993 7.54912C47.6667 9.9819 47.6667 13.5964 47.6667 20.8253C47.6667 28.0543 47.6667 31.6687 45.6993 34.1014C45.3392 34.5467 44.9369 34.9551 44.4981 35.3206C43.5953 36.0724 42.5275 36.5411 41.1667 36.8334" stroke="#444444" stroke-width="3" stroke-linecap="round"/>
<path d="M13 28.1666H15.8889M15.8889 28.1666L18.4167 47.6666M15.8889 28.1666H26M26 28.1666H36.1112M26 28.1666V47.6666M39 28.1666H36.1112M36.1112 28.1666L33.5833 47.6666" stroke="#444444" stroke-width="3" stroke-linecap="round" stroke-linejoin="round"/>
<path d="M17.3333 21.6667C17.461 17.4379 20.0673 17.3334 23.8286 17.3334H28.1714C31.9328 17.3334 34.5391 17.4379 34.6667 21.6667" stroke="#444444" stroke-width="3" stroke-linecap="round" stroke-linejoin="round"/>
<path d="M17.3333 35.75H34.6667M18.2963 43.3333H33.7038" stroke="#444444" stroke-width="3" stroke-linejoin="round"/>
</svg>
