<svg viewBox="0 0 52 52" fill="none" xmlns="http://www.w3.org/2000/svg">
<path d="M16.8322 17.327C19.7373 15.545 22.2729 16.2631 23.7961 17.407C24.4207 17.876 24.7329 18.1105 24.9167 18.1105C25.1004 18.1105 25.4126 17.876 26.0373 17.407C27.5604 16.2631 30.0961 15.545 33.0012 17.327C36.8138 19.6657 37.6764 27.381 28.8821 33.8904C27.207 35.1301 26.3696 35.75 24.9167 35.75C23.4637 35.75 22.6263 35.1301 20.9511 33.8904C12.1569 27.381 13.0196 19.6657 16.8322 17.327Z" stroke="#444444" stroke-width="3" stroke-linecap="round"/>
<path d="M4.33334 26C4.33334 16.2969 4.33334 11.4454 7.34769 8.43098C10.3621 5.41663 15.2136 5.41663 24.9167 5.41663C34.6197 5.41663 39.4713 5.41663 42.4857 8.43098C45.5 11.4454 45.5 16.2969 45.5 26C45.5 35.7029 45.5 40.5545 42.4857 43.569C39.4713 46.5833 34.6197 46.5833 24.9167 46.5833C15.2136 46.5833 10.3621 46.5833 7.34769 43.569C4.33334 40.5545 4.33334 35.7029 4.33334 26Z" stroke="#444444" stroke-width="3" stroke-linejoin="round"/>
</svg>
