<svg viewBox="0 0 262 72" fill="none" xmlns="http://www.w3.org/2000/svg">
<rect width="163" height="72" rx="7" fill="#FF9874"/>
<path d="M52.1348 25.8262C52.1348 26.8288 51.7767 27.6702 51.0605 28.3506C50.3802 29.0667 49.5387 29.4248 48.5361 29.4248H27.0518C26.3714 29.4606 25.7985 29.6217 25.333 29.9082C24.9033 30.1589 24.5811 30.4632 24.3662 30.8213C24.1514 31.1436 24.0439 31.4837 24.0439 31.8418C24.0439 32.1999 24.1514 32.5579 24.3662 32.916C24.5811 33.2383 24.9033 33.5426 25.333 33.8291C25.7985 34.0798 26.3714 34.223 27.0518 34.2588H42.3057C44.8122 34.3304 46.8711 34.9212 48.4824 36.0312C50.1296 37.1055 51.2933 38.3587 51.9736 39.791C52.6898 41.1875 53.0479 42.6198 53.0479 44.0879C53.0479 45.5202 52.6898 46.9525 51.9736 48.3848C51.2575 49.7812 50.0938 51.0345 48.4824 52.1445C46.8711 53.2188 44.8122 53.7559 42.3057 53.7559H41.9834C41.7686 53.7917 41.5537 53.8096 41.3389 53.8096H21.0361C20.0335 53.8096 19.1742 53.4694 18.458 52.7891C17.7777 52.0729 17.4375 51.2135 17.4375 50.2109C17.4375 49.2083 17.7956 48.3669 18.5117 47.6865C19.1921 46.9704 20.0335 46.6123 21.0361 46.6123H42.6279C43.3083 46.6481 43.8633 46.5228 44.293 46.2363C44.7585 45.9499 45.0986 45.6276 45.3135 45.2695C45.5283 44.8757 45.6357 44.4818 45.6357 44.0879C45.6357 43.8372 45.5283 43.4971 45.3135 43.0674C45.0986 42.6019 44.7585 42.2259 44.293 41.9395C43.8633 41.653 43.3083 41.4919 42.6279 41.4561H27.374C24.8675 41.3844 22.7907 40.8115 21.1436 39.7373C19.5322 38.6631 18.3685 37.4456 17.6523 36.085C16.972 34.6885 16.6318 33.2741 16.6318 31.8418C16.6318 30.4453 16.9899 29.0667 17.7061 27.7061C18.4222 26.3096 19.5859 25.0742 21.1973 24C22.8086 22.9258 24.8675 22.3529 27.374 22.2812H27.6963C27.9111 22.2454 28.126 22.2275 28.3408 22.2275H48.5361C49.5387 22.2275 50.3802 22.5856 51.0605 23.3018C51.7767 23.9821 52.1348 24.8236 52.1348 25.8262ZM67.9645 51.0703C67.7496 53.2188 66.568 54.3825 64.4195 54.5615C63.4169 54.5615 62.5396 54.2393 61.7877 53.5947C61.0716 52.9144 60.7135 52.0729 60.7135 51.0703V25.7188C60.7493 24.7161 61.1253 23.8926 61.8414 23.248C62.5576 22.5677 63.4169 22.2275 64.4195 22.2275H86.9781C90.1292 22.335 92.5104 23.0332 94.1217 24.3223C95.733 25.5755 96.8967 27.0078 97.6129 28.6191C98.329 30.2305 98.6871 31.8597 98.6871 33.5068C98.6871 35.2256 98.329 36.8906 97.6129 38.502C96.9326 40.1133 95.7688 41.5635 94.1217 42.8525C92.5104 44.1058 90.4514 44.7145 87.9449 44.6787H74.4098C73.4072 44.6787 72.5657 44.3206 71.8854 43.6045C71.1692 42.9242 70.8111 42.0827 70.8111 41.0801C70.8111 40.0775 71.1513 39.236 71.8316 38.5557C72.5478 37.8395 73.4072 37.4814 74.4098 37.4814H88.2672C88.9475 37.4814 89.5025 37.2666 89.9322 36.8369C90.3977 36.3714 90.7379 35.8522 90.9527 35.2793C91.1676 34.6706 91.275 34.0618 91.275 33.4531C91.275 32.8802 91.1676 32.3073 90.9527 31.7344C90.7379 31.1257 90.3977 30.6064 89.9322 30.1768C89.5025 29.7113 88.9475 29.4606 88.2672 29.4248H69.3609C68.4299 29.4606 67.9645 29.9261 67.9645 30.8213V51.0703ZM134.873 22.2275C136.699 22.2633 138.329 22.8363 139.761 23.9463C141.193 25.0563 142.339 26.3812 143.198 27.9209C144.094 29.4606 144.756 31.0898 145.186 32.8086C145.615 34.5273 145.83 36.2819 145.83 38.0723C145.83 40.4355 145.454 42.763 144.702 45.0547C143.986 47.3105 142.787 49.3158 141.104 51.0703C139.457 52.8249 137.38 53.7738 134.873 53.917H116.128C113.622 53.8096 111.527 52.8786 109.844 51.124C108.161 49.3695 106.961 47.3464 106.245 45.0547C105.565 42.763 105.225 40.4355 105.225 38.0723C105.225 35.709 105.583 33.3994 106.299 31.1436C107.015 28.8519 108.197 26.8288 109.844 25.0742C111.527 23.2839 113.622 22.335 116.128 22.2275H117.149H133.853H134.873ZM133.047 46.7197C134.408 46.6481 135.536 46.1468 136.431 45.2158C137.362 44.249 138.024 43.139 138.418 41.8857C138.812 40.6325 139.009 39.3613 139.009 38.0723C139.009 36.7832 138.794 35.5299 138.364 34.3125C137.971 33.0592 137.326 31.9492 136.431 30.9824C135.536 30.0156 134.408 29.4964 133.047 29.4248H117.793C116.432 29.4964 115.305 30.0156 114.409 30.9824C113.514 31.9492 112.852 33.0592 112.422 34.3125C112.028 35.5299 111.831 36.7832 111.831 38.0723C111.831 39.3613 112.028 40.6325 112.422 41.8857C112.816 43.139 113.46 44.249 114.356 45.2158C115.287 46.1468 116.432 46.6481 117.793 46.7197H133.047Z" fill="white"/>
<path d="M182.256 50.2939C182.256 49.2913 182.596 48.4499 183.276 47.7695C183.993 47.0534 184.852 46.6953 185.854 46.6953H196.167V29.4004H185.854C184.852 29.4004 184.01 29.0423 183.33 28.3262C182.614 27.6458 182.256 26.8044 182.256 25.8018C182.256 24.7992 182.596 23.9577 183.276 23.2773C183.993 22.5612 184.852 22.2031 185.854 22.2031H213.677C214.679 22.2031 215.539 22.5433 216.255 23.2236C216.935 23.9398 217.275 24.7992 217.275 25.8018C217.275 26.8044 216.917 27.6637 216.201 28.3799C215.521 29.0602 214.679 29.4004 213.677 29.4004H203.418V46.6953H213.677C214.679 46.6953 215.539 47.0355 216.255 47.7158C216.935 48.432 217.275 49.2913 217.275 50.2939C217.275 51.2965 216.917 52.1559 216.201 52.8721C215.521 53.5524 214.679 53.8926 213.677 53.8926H185.854C184.852 53.8926 184.01 53.5345 183.33 52.8184C182.614 52.138 182.256 51.2965 182.256 50.2939ZM247.768 22.2031C250.275 22.3464 252.334 23.3132 253.945 25.1035C255.556 26.8581 256.72 28.8633 257.436 31.1191C258.152 33.375 258.51 35.6846 258.51 38.0479C258.51 40.4111 258.152 42.7207 257.436 44.9766C256.756 47.2324 255.592 49.2555 253.945 51.0459C252.334 52.8005 250.275 53.7493 247.768 53.8926H228.003C227.036 53.8568 226.212 53.5166 225.532 52.8721C224.887 52.1917 224.547 51.3682 224.511 50.4014V37.0811C224.547 36.0785 224.923 35.2549 225.639 34.6104C226.355 33.93 227.215 33.5898 228.217 33.5898C229.184 33.6257 230.008 33.9837 230.688 34.6641C231.368 35.3086 231.726 36.1143 231.762 37.0811V45.2451C231.762 46.2119 232.264 46.6953 233.266 46.6953H245.942C247.303 46.6237 248.431 46.1045 249.326 45.1377C250.221 44.1709 250.865 43.0788 251.259 41.8613C251.689 40.6081 251.904 39.3369 251.904 38.0479C251.904 36.7588 251.689 35.5055 251.259 34.2881C250.865 33.0348 250.221 31.9248 249.326 30.958C248.431 29.9912 247.303 29.472 245.942 29.4004H228.003C225.854 29.2214 224.69 28.0576 224.511 25.9092C224.511 24.9066 224.834 24.0472 225.478 23.3311C226.158 22.6149 227 22.2389 228.003 22.2031H247.768Z" fill="#303030"/>
</svg>
