<svg viewBox="0 0 15 15" fill="none" xmlns="http://www.w3.org/2000/svg">
<path d="M8.51106 13.3544C8.24006 13.6081 7.87775 13.75 7.50069 13.75C7.12362 13.75 6.76138 13.6081 6.49031 13.3544C4.00814 11.0163 0.681725 8.40431 2.30392 4.61229C3.18102 2.56198 5.28646 1.25 7.50069 1.25C9.71494 1.25 11.8204 2.56198 12.6975 4.61229C14.3176 8.39956 10.9994 11.0243 8.51106 13.3544Z" stroke="black"/>
<path d="M9.6875 6.875C9.6875 8.08312 8.70812 9.0625 7.5 9.0625C6.29188 9.0625 5.3125 8.08312 5.3125 6.875C5.3125 5.66688 6.29188 4.6875 7.5 4.6875C8.70812 4.6875 9.6875 5.66688 9.6875 6.875Z" stroke="black"/>
</svg>
