<svg viewBox="0 0 52 52" fill="none" xmlns="http://www.w3.org/2000/svg">
<path d="M5.41667 26C5.41667 16.2969 5.41667 11.4454 8.43102 8.43098C11.4454 5.41663 16.2969 5.41663 26 5.41663C35.703 5.41663 40.5546 5.41663 43.5691 8.43098C46.5833 11.4454 46.5833 16.2969 46.5833 26C46.5833 35.7029 46.5833 40.5545 43.5691 43.569C40.5546 46.5833 35.703 46.5833 26 46.5833C16.2969 46.5833 11.4454 46.5833 8.43102 43.569C5.41667 40.5545 5.41667 35.7029 5.41667 26Z" stroke="#444444" stroke-width="3"/>
<path d="M16.25 36.8333C21.302 31.5419 30.6436 31.2927 35.75 36.8333M31.4061 20.5833C31.4061 23.5748 28.9774 26 25.9816 26C22.986 26 20.5573 23.5748 20.5573 20.5833C20.5573 17.5918 22.986 15.1666 25.9816 15.1666C28.9774 15.1666 31.4061 17.5918 31.4061 20.5833Z" stroke="#444444" stroke-width="3" stroke-linecap="round"/>
</svg>
